<?xml version="1.0" encoding="UTF-8" standalone="no"?>
<svg
   xmlns:dc="http://purl.org/dc/elements/1.1/"
   xmlns:cc="http://creativecommons.org/ns#"
   xmlns:rdf="http://www.w3.org/1999/02/22-rdf-syntax-ns#"
   xmlns:svg="http://www.w3.org/2000/svg"
   xmlns="http://www.w3.org/2000/svg"
   xmlns:sodipodi="http://sodipodi.sourceforge.net/DTD/sodipodi-0.dtd"
   xmlns:inkscape="http://www.inkscape.org/namespaces/inkscape"
   width="56.40625"
   height="40.000011"
   version="1.1"
   id="svg8"
   sodipodi:docname="NOR_ANSI.svg"
   inkscape:version="0.92.4 (5da689c313, 2019-01-14)">
  <metadata
     id="metadata14">
    <rdf:RDF>
      <cc:Work
         rdf:about="">
        <dc:format>image/svg+xml</dc:format>
        <dc:type
           rdf:resource="http://purl.org/dc/dcmitype/StillImage" />
        <dc:title></dc:title>
      </cc:Work>
    </rdf:RDF>
  </metadata>
  <defs
     id="defs12" />
  <sodipodi:namedview
     pagecolor="#ffffff"
     bordercolor="#666666"
     borderopacity="1"
     objecttolerance="10"
     gridtolerance="10"
     guidetolerance="10"
     inkscape:pageopacity="0"
     inkscape:pageshadow="2"
     inkscape:window-width="1920"
     inkscape:window-height="1001"
     id="namedview10"
     showgrid="false"
     fit-margin-top="0"
     fit-margin-left="0"
     fit-margin-right="0"
     fit-margin-bottom="0"
     inkscape:zoom="9.5883679"
     inkscape:cx="51.687368"
     inkscape:cy="17.187518"
     inkscape:window-x="-9"
     inkscape:window-y="-9"
     inkscape:window-maximized="1"
     inkscape:current-layer="svg8" />
  <path
     d="M 0,0 2,2.4375 C 2,2.4375 7.65625,9.437549 7.65625,20 7.65625,30.562451 2,37.5625 2,37.5625 L 0,40 h 17.15625 c 2.408076,10e-7 7.689699,0.02451 13.625,-2.40625 5.935301,-2.430764 12.536536,-7.343266 17.6875,-16.875 L 47.15625,20 48.46875,19.28125 C 38.165637,0.21559 21.912824,0 17.15625,0 Z M 5.875,3 H 17.15625 C 21.840423,3 35.4431,2.869793 45.125,20 40.358214,28.429075 34.603719,32.68391 29.40625,34.8125 24.045589,37.007924 19.564325,37.000001 17.15625,37 h -11.25 c 1.873588,-3.108434 4.75,-9.04935 4.75,-17 0,-7.973354 -2.908531,-13.900185 -4.78125,-17 z"
     id="path4"
     inkscape:connector-curvature="0"
     style="fill-rule:evenodd" />
  <path
     d="m 54.90625,20 a 4,4 0 1 1 -8,0 4,4 0 1 1 8,0 z"
     style="fill:none;stroke:#000000;stroke-width:3;marker:none"
     id="path6"
     inkscape:connector-curvature="0" />
</svg>
