<?xml version="1.0" encoding="UTF-8" standalone="no"?>
<svg
   xmlns:dc="http://purl.org/dc/elements/1.1/"
   xmlns:cc="http://creativecommons.org/ns#"
   xmlns:rdf="http://www.w3.org/1999/02/22-rdf-syntax-ns#"
   xmlns:svg="http://www.w3.org/2000/svg"
   xmlns="http://www.w3.org/2000/svg"
   xmlns:sodipodi="http://sodipodi.sourceforge.net/DTD/sodipodi-0.dtd"
   xmlns:inkscape="http://www.inkscape.org/namespaces/inkscape"
   width="54.359375"
   height="40.000011"
   version="1.1"
   id="svg10"
   sodipodi:docname="XOR_ANSI.svg"
   inkscape:version="0.92.4 (5da689c313, 2019-01-14)">
  <metadata
     id="metadata16">
    <rdf:RDF>
      <cc:Work
         rdf:about="">
        <dc:format>image/svg+xml</dc:format>
        <dc:type
           rdf:resource="http://purl.org/dc/dcmitype/StillImage" />
        <dc:title></dc:title>
      </cc:Work>
    </rdf:RDF>
  </metadata>
  <defs
     id="defs14" />
  <sodipodi:namedview
     pagecolor="#ffffff"
     bordercolor="#666666"
     borderopacity="1"
     objecttolerance="10"
     gridtolerance="10"
     guidetolerance="10"
     inkscape:pageopacity="0"
     inkscape:pageshadow="2"
     inkscape:window-width="1920"
     inkscape:window-height="1001"
     id="namedview12"
     showgrid="false"
     inkscape:zoom="8"
     inkscape:cx="51.330124"
     inkscape:cy="17.530304"
     inkscape:window-x="-9"
     inkscape:window-y="-9"
     inkscape:window-maximized="1"
     inkscape:current-layer="svg10"
     inkscape:snap-page="true"
     inkscape:showpageshadow="false"
     fit-margin-top="0"
     fit-margin-left="0"
     fit-margin-right="0"
     fit-margin-bottom="0" />
  <g
     id="g8"
     style="fill-rule:evenodd"
     transform="translate(-18.34375,-5)">
    <path
       d="M 24.25,42 C 22.65263,44.6444 22,45 22,45 h -3.65625 l 2,-2.4375 C 20.34375,42.5625 26,35.56245 26,25 26,14.43755 20.34375,7.4375 20.34375,7.4375 L 18.34375,5 H 22 c 0.78125,0.9375 1.42188,1.65625 2.21875,3 C 26.09147,11.09981 29,17.02665 29,25 c 0,7.95065 -2.8967,13.87942 -4.75,17 z"
       id="path4"
       inkscape:connector-curvature="0" />
    <path
       d="m 24.09375,5 2,2.4375 c 0,0 5.65625,7.00005 5.65625,17.5625 0,10.56245 -5.65625,17.5625 -5.65625,17.5625 l -2,2.4375 H 41.25 c 2.40808,0 7.6897,0.02451 13.625,-2.40625 C 60.8103,40.16299 67.552165,34.53173 72.703125,25 v 0 0 C 62.400015,5.93434 46.00657,5 41.25,5 Z m 5.875,3 H 41.25 C 45.93417,8 59.53685,7.8698 69.21875,25 64.45196,33.42907 58.69747,37.68391 53.5,39.8125 48.13934,42.00792 43.65808,42 41.25,42 H 30 c 1.87359,-3.10843 4.75,-9.04935 4.75,-17 0,-7.97335 -2.90853,-13.90019 -4.78125,-17 z"
       id="path6"
       inkscape:connector-curvature="0"
       sodipodi:nodetypes="ccsccsscccsccscsscsc" />
  </g>
</svg>
